<svg width="80px" height="80px" viewBox="0 0 48 48" xmlns="http://www.w3.org/2000/svg" fill="#ffffff" stroke="#ffffff"><g id="SVGRepo_bgCarrier" stroke-width="0"></g><g id="SVGRepo_tracerCarrier" stroke-linecap="round" stroke-linejoin="round"></g><g id="SVGRepo_iconCarrier"><title>70 Basic icons by Xicons.co</title><path d="M44,26H2a2,2,0,0,1,0-4H44A2,2,0,0,1,44,26Z" fill="#ffffff"></path><path d="M28,43a2,2,0,0,1-1.41-3.41L42.19,24,26.62,8.43A2,2,0,0,1,29.44,5.6l17,17A2,2,0,0,1,47,24a2.07,2.07,0,0,1-.59,1.44l-17,17A2,2,0,0,1,28,43Z" fill="#ffffff"></path></g></svg>